<svg width="32" height="32" viewBox="0 0 32 32" fill="none" xmlns="http://www.w3.org/2000/svg">
<path d="M26.406 4.94027C26.0916 4.56789 25.7773 4.19551 25.463 3.82312C24.5199 2.6315 23.514 1.43988 22.2567 0.695118C20.8107 -0.198599 19.239 0.0248237 17.6673 0.0248237C15.2783 0.0248237 9.30579 0.0248237 5.78516 0.0248237L8.17416 3.82312C12.5121 3.82312 19.3019 3.82312 22.4453 3.82312C23.7655 3.82312 24.8971 4.12103 25.9659 4.94027C26.1545 5.01475 26.3431 5.01475 26.406 4.94027Z" fill="#1F3EE7"/>
<path d="M29.0467 11.0472C28.7323 10.6748 28.418 10.3024 28.1037 9.93005C27.1606 8.73843 26.1547 7.54681 24.8974 6.80204C23.4514 5.90833 21.8797 6.13176 20.308 6.13176C18.2333 6.13176 13.2667 6.13176 9.74609 6.13176L12.1351 9.93005C16.4101 9.93005 22.2569 9.93005 25.1488 9.93005C26.4691 9.93005 27.6007 10.228 28.6695 11.0472C28.7952 11.1217 28.9209 11.1217 29.0467 11.0472Z" fill="#1F3EE7"/>
<path d="M31.9986 17.0057C31.6842 16.6333 31.3699 16.2609 31.0555 15.8886C30.1125 14.6969 29.1066 13.5053 27.8492 12.7605C26.4033 11.8668 24.8316 12.0903 23.2599 12.0903C21.3109 12.0903 17.0359 12.0903 13.5781 12.0903L15.9671 15.8886C20.1164 15.8886 25.3974 15.8886 28.0379 15.8886C29.3581 15.8886 30.4897 16.1865 31.5585 17.0057C31.7471 17.0802 31.8728 17.1547 31.9986 17.0057Z" fill="#1F3EE7"/>
<path d="M5.53125 27.0598C5.84559 27.4321 6.15993 27.8045 6.47428 28.1769C7.4173 29.3685 8.42319 30.5601 9.68056 31.3049C11.1265 32.1986 12.6982 31.9752 14.27 31.9752H26.1521L23.7631 28.1769C19.4252 28.1769 12.6354 28.1769 9.49196 28.1769C8.17172 28.1769 7.04009 27.879 5.97133 27.0598C5.78272 26.9853 5.65699 26.9853 5.53125 27.0598Z" fill="#1F3EE7"/>
<path d="M2.89062 20.9528C3.20497 21.3252 3.51931 21.6976 3.83365 22.07C4.77668 23.2616 5.78256 24.4532 7.03993 25.198C8.4859 26.0917 10.0576 25.8683 11.6293 25.8683H22.1912L19.8022 22.07C15.5272 22.07 9.68041 22.07 6.78846 22.07C5.46823 22.07 4.33659 21.7721 3.26783 20.9528C3.14209 20.8784 3.01636 20.8784 2.89062 20.9528Z" fill="#1F3EE7"/>
<path d="M0 14.9201C0.314342 15.2925 0.628684 15.6649 0.943026 16.0373C1.88605 17.2289 2.89195 18.4205 4.14932 19.1653C5.59529 20.059 7.16699 19.8356 8.7387 19.8356H18.4204L16.0314 16.0373C11.8821 16.0373 6.60118 16.0373 3.96071 16.0373C2.64047 16.0373 1.50884 15.7394 0.440077 14.9201C0.251472 14.8456 0.125737 14.8456 0 14.9201Z" fill="#1F3EE7"/>
</svg>
