<svg width="161" height="44" viewBox="0 0 161 44" fill="none" xmlns="http://www.w3.org/2000/svg">
<path d="M42.0002 7.14994C41.5002 6.64994 41.0002 6.14994 40.5002 5.64994C39.0002 4.04994 37.4002 2.44994 35.4002 1.44994C33.1002 0.249942 30.6002 0.549933 28.1002 0.549933C24.3002 0.549933 14.8002 0.549933 9.2002 0.549933L13.0002 5.64994C19.9002 5.64994 30.7002 5.64994 35.7002 5.64994C37.8002 5.64994 39.6002 6.04994 41.3002 7.14994C41.6002 7.24994 41.9002 7.24994 42.0002 7.14994Z" fill="#405DF9"/>
<path d="M46.2 15.3501C45.7 14.8501 45.2 14.3501 44.7 13.8501C43.2 12.2501 41.6 10.6501 39.6 9.65013C37.3 8.45013 34.8 8.75013 32.3 8.75013C29 8.75013 21.1 8.75013 15.5 8.75013L19.3 13.8501C26.1 13.8501 35.4 13.8501 40 13.8501C42.1 13.8501 43.9 14.2501 45.6 15.3501C45.8 15.4501 46 15.4501 46.2 15.3501Z" fill="#405DF9"/>
<path d="M50.8996 23.3501C50.3996 22.8501 49.8996 22.3501 49.3996 21.8501C47.8996 20.2501 46.2996 18.6501 44.2996 17.6501C41.9996 16.4501 39.4996 16.7501 36.9996 16.7501C33.8996 16.7501 27.0996 16.7501 21.5996 16.7501L25.3996 21.8501C31.9996 21.8501 40.3996 21.8501 44.5996 21.8501C46.6996 21.8501 48.4996 22.2501 50.1996 23.3501C50.4996 23.4501 50.6996 23.5501 50.8996 23.3501Z" fill="#405DF9"/>
<path d="M8.7998 36.8499C9.2998 37.3499 9.7998 37.8499 10.2998 38.3499C11.7998 39.9499 13.3998 41.5499 15.3998 42.5499C17.6998 43.7499 20.1998 43.4499 22.6998 43.4499H41.5998L37.7998 38.3499C30.8998 38.3499 20.0998 38.3499 15.0998 38.3499C12.9998 38.3499 11.1998 37.9499 9.4998 36.8499C9.1998 36.7499 8.9998 36.7499 8.7998 36.8499Z" fill="#405DF9"/>
<path d="M4.59961 28.6497C5.09961 29.1497 5.59961 29.6497 6.09961 30.1497C7.59961 31.7497 9.1996 33.3497 11.1996 34.3497C13.4996 35.5497 15.9996 35.2497 18.4996 35.2497H35.2996L31.4996 30.1497C24.6996 30.1497 15.3996 30.1497 10.7996 30.1497C8.69961 30.1497 6.8996 29.7497 5.1996 28.6497C4.9996 28.5497 4.79961 28.5497 4.59961 28.6497Z" fill="#405DF9"/>
<path d="M0 20.5501C0.5 21.0501 1 21.5501 1.5 22.0501C3 23.6501 4.60001 25.2501 6.60001 26.2501C8.90001 27.4501 11.4 27.1501 13.9 27.1501H29.3L25.5 22.0501C18.9 22.0501 10.5 22.0501 6.3 22.0501C4.2 22.0501 2.4 21.6501 0.699997 20.5501C0.399997 20.4501 0.2 20.4501 0 20.5501Z" fill="#405DF9"/>
<path d="M60.3772 15.148H62.4652V26.2H69.4132V28H60.3772V15.148ZM76.7355 14.896C78.6975 14.896 80.2455 15.526 81.3795 16.804C82.4595 18.01 82.9995 19.612 82.9995 21.592C82.9995 23.572 82.4595 25.156 81.3795 26.362C80.2455 27.622 78.6975 28.252 76.7355 28.252C74.7555 28.252 73.2075 27.604 72.0915 26.344C71.0115 25.12 70.4895 23.536 70.4895 21.592C70.4895 19.63 71.0115 18.046 72.0915 16.822C73.2075 15.526 74.7555 14.896 76.7355 14.896ZM76.7355 16.75C75.4035 16.75 74.3775 17.2 73.6395 18.1C72.9375 18.964 72.5955 20.116 72.5955 21.592C72.5955 23.05 72.9375 24.202 73.6395 25.066C74.3595 25.948 75.4035 26.398 76.7355 26.398C78.0675 26.398 79.0935 25.966 79.8135 25.12C80.5155 24.274 80.8755 23.104 80.8755 21.592C80.8755 20.08 80.5155 18.892 79.8135 18.028C79.0935 17.164 78.0675 16.75 76.7355 16.75ZM90.5666 14.896C92.2226 14.896 93.5186 15.256 94.4726 15.994C95.3906 16.714 95.9666 17.776 96.2006 19.216H94.0766C93.8966 18.388 93.5006 17.776 92.9246 17.362C92.3306 16.948 91.5386 16.75 90.5666 16.75C89.3606 16.75 88.4066 17.146 87.7046 17.974C86.9306 18.838 86.5526 20.044 86.5526 21.628C86.5526 23.14 86.8946 24.31 87.5786 25.12C88.3166 25.984 89.4686 26.416 91.0346 26.416C91.6466 26.416 92.2226 26.344 92.7626 26.2C93.2666 26.056 93.7166 25.858 94.1486 25.606V22.96H90.7466V21.16H96.2546V26.596C95.5706 27.136 94.7966 27.532 93.9146 27.82C92.9786 28.108 91.9526 28.252 90.8006 28.252C88.7486 28.252 87.1646 27.604 86.0306 26.308C84.9686 25.102 84.4466 23.536 84.4466 21.628C84.4466 19.702 84.9686 18.118 86.0306 16.876C87.1466 15.544 88.6586 14.896 90.5666 14.896ZM104.298 14.896C106.26 14.896 107.808 15.526 108.942 16.804C110.022 18.01 110.562 19.612 110.562 21.592C110.562 23.572 110.022 25.156 108.942 26.362C107.808 27.622 106.26 28.252 104.298 28.252C102.318 28.252 100.77 27.604 99.654 26.344C98.574 25.12 98.052 23.536 98.052 21.592C98.052 19.63 98.574 18.046 99.654 16.822C100.77 15.526 102.318 14.896 104.298 14.896ZM104.298 16.75C102.966 16.75 101.94 17.2 101.202 18.1C100.5 18.964 100.158 20.116 100.158 21.592C100.158 23.05 100.5 24.202 101.202 25.066C101.922 25.948 102.966 26.398 104.298 26.398C105.63 26.398 106.656 25.966 107.376 25.12C108.078 24.274 108.438 23.104 108.438 21.592C108.438 20.08 108.078 18.892 107.376 18.028C106.656 17.164 105.63 16.75 104.298 16.75ZM124.123 14.896C125.635 14.896 126.895 15.292 127.867 16.084C128.803 16.84 129.361 17.884 129.559 19.18H127.507C127.291 18.334 126.895 17.722 126.301 17.326C125.725 16.93 124.987 16.75 124.087 16.75C122.737 16.75 121.729 17.2 121.045 18.136C120.415 18.964 120.109 20.116 120.109 21.592C120.109 23.104 120.415 24.274 121.027 25.084C121.693 25.948 122.737 26.398 124.141 26.398C125.059 26.398 125.815 26.164 126.391 25.732C127.003 25.246 127.435 24.508 127.687 23.536H129.739C129.451 25.048 128.785 26.218 127.723 27.064C126.733 27.856 125.545 28.252 124.159 28.252C122.017 28.252 120.415 27.568 119.371 26.236C118.453 25.084 118.003 23.536 118.003 21.592C118.003 19.684 118.471 18.118 119.425 16.93C120.505 15.562 122.071 14.896 124.123 14.896ZM137.433 14.896C139.395 14.896 140.943 15.526 142.077 16.804C143.157 18.01 143.697 19.612 143.697 21.592C143.697 23.572 143.157 25.156 142.077 26.362C140.943 27.622 139.395 28.252 137.433 28.252C135.453 28.252 133.905 27.604 132.789 26.344C131.709 25.12 131.187 23.536 131.187 21.592C131.187 19.63 131.709 18.046 132.789 16.822C133.905 15.526 135.453 14.896 137.433 14.896ZM137.433 16.75C136.101 16.75 135.075 17.2 134.337 18.1C133.635 18.964 133.293 20.116 133.293 21.592C133.293 23.05 133.635 24.202 134.337 25.066C135.057 25.948 136.101 26.398 137.433 26.398C138.765 26.398 139.791 25.966 140.511 25.12C141.213 24.274 141.573 23.104 141.573 21.592C141.573 20.08 141.213 18.892 140.511 18.028C139.791 17.164 138.765 16.75 137.433 16.75ZM145.684 15.148H148.15L152.524 25.228H152.596L156.952 15.148H159.418V28H157.312V19.144H157.24L153.46 28H151.642L147.862 19.144H147.79V28H145.684V15.148Z" fill="#405DF9"/>
</svg>
